<?xml version="1.0" standalone="no"?>
<!DOCTYPE svg PUBLIC "-//W3C//DTD SVG 20010904//EN"
 "http://www.w3.org/TR/2001/REC-SVG-20010904/DTD/svg10.dtd">
<svg version="1.0" xmlns="http://www.w3.org/2000/svg"
 width="72.000000pt" height="72.000000pt" viewBox="0 0 72.000000 72.000000"
 preserveAspectRatio="xMidYMid meet">
<metadata>
Created by potrace 1.16, written by Peter Selinger 2001-2019
</metadata>
<g transform="translate(0.000000,72.000000) scale(0.100000,-0.100000)"
fill="#000000" stroke="none">
<path d="M270 681 c-88 -29 -165 -93 -208 -176 -24 -44 -27 -62 -27 -145 0
-85 3 -101 28 -148 34 -65 92 -122 155 -153 39 -20 62 -24 142 -24 111 0 167
21 235 90 69 68 90 124 90 235 0 110 -19 161 -86 230 -62 64 -130 93 -224 96
-44 2 -91 0 -105 -5z m9 -188 c5 -21 13 -60 17 -88 l7 -50 13 49 c14 55 25 66
71 66 22 0 37 -7 47 -22 15 -22 16 -20 16 30 0 52 1 53 28 50 l27 -3 3 -122 3
-123 29 0 c23 0 30 -4 30 -20 0 -18 -7 -20 -60 -20 -53 0 -60 2 -60 20 0 17
-2 17 -26 -7 -19 -19 -31 -24 -52 -19 -15 4 -44 7 -64 6 -34 -1 -38 2 -38 25
0 22 -4 26 -22 23 -15 -2 -24 -11 -26 -25 -3 -18 -10 -23 -32 -23 l-28 0 14
70 c7 39 18 99 24 133 16 87 16 87 44 87 21 0 27 -7 35 -37z"/>
</g>
</svg>
